<?xml version="1.0" encoding="utf-8"?>
<!-- Generator: Adobe Illustrator 23.0.3, SVG Export Plug-In . SVG Version: 6.00 Build 0)  -->
<svg version="1.1" id="Layer_1" xmlns="http://www.w3.org/2000/svg" xmlns:xlink="http://www.w3.org/1999/xlink" x="0px" y="0px"
	 viewBox="0 0 2000 2000" style="enable-background:new 0 0 2000 2000;" xml:space="preserve">
<style type="text/css">
	.st0{fill:#4D2305;}
	.st1{fill:#D98600;}
</style>
<g>
	<g>
		<path class="st0" d="M1201.32,979.42c-13.58,2.15-27.18,1.42-39.32-2.11l-4.93-1.43l2.22-4.28c1.24-2.39,2.42-4.8,3.51-7.15
			l1.81-3.91l4.41,1.34c9.39,2.85,19.99,3.46,30.66,1.77c5.96-0.94,11.88-2.59,17.59-4.9c31.59-12.77,48.69-42.45,38.11-66.15
			c-8.45-18.92-31.99-28.82-58.57-24.61c-3.24,0.51-6.5,1.24-9.69,2.17l-5.82,1.69l-0.36-5.31c-0.17-2.46-0.38-4.87-0.64-7.19
			l-0.4-3.57l3.94-1.09c3.74-1.04,7.56-1.87,11.35-2.46c16.58-2.62,33.34-0.89,47.18,4.87c14.48,6.02,25.12,15.91,30.77,28.59
			c14.09,31.56-7.98,70.8-49.19,87.46C1216.62,976.08,1209,978.2,1201.32,979.42z"/>
		<g>
			<path class="st1" d="M1214.99,818.03c-0.01,3.62-0.11,7.21-0.28,10.79c-0.12,2.81-0.3,5.62-0.53,8.4
				c-3.22,40.23-15.98,77.53-35.84,109.25c-1.6,2.58-3.26,5.12-4.97,7.62c-6.82,10.01-14.37,19.4-22.55,28.1
				c-38.92,41.31-92.35,66.81-151.32,66.81c-58.98,0-112.42-25.5-151.33-66.83c-39.15-41.58-63.59-99.17-64.15-162.91
				C836.26,882.82,913.2,907,999,907c53.54,0,103.64-9.49,146.43-32.04c5.9-3.1,11.65-6.45,17.26-10.06
				c9.51-6.12,18.6-12.98,27.21-20.64c4.78-4.23,9.42-8.72,13.89-13.46C1207.64,826.73,1211.38,822.47,1214.99,818.03z"/>
		</g>
		<path class="st0" d="M1150.82,993.19c-3.38,6.48-7.22,12.72-11.48,18.67c-1.25,1.77-2.55,3.5-3.88,5.21
			c-30.67,39.37-80.14,64.93-135.96,64.93c-66.44,0-123.9-36.22-151.33-88.83c38.91,41.33,92.35,66.83,151.33,66.83
			C1058.47,1060,1111.9,1034.5,1150.82,993.19z"/>
		<path class="st0" d="M1000,658c-118.74,0-215,52.16-215,116.5S881.26,891,1000,891s215-52.16,215-116.5S1118.74,658,1000,658z
			 M982,796c-121.77,49.13-181,6-181,6s73.63,12.4,179-53c116-72,188-39,188-39C1056,719,1039,773,982,796z"/>
	</g>
	<g>
		<g>
			<path class="st0" d="M840.77,903.8l4.7,5.08c1.81,1.96,2.88,4.07,3.2,6.32c0.32,2.25-0.2,4.01-1.55,5.26l-1.32,1.22l-5.16-5.57
				l1.32-1.22c0.28-0.26,0.38-0.63,0.32-1.11c-0.06-0.48-0.28-0.93-0.66-1.34l-4.7-5.08c-0.4-0.43-0.84-0.71-1.32-0.83
				c-0.48-0.12-0.87-0.05-1.16,0.23l-8.67,8.02c-0.29,0.27-0.4,0.65-0.32,1.14c0.08,0.49,0.32,0.95,0.73,1.38l4.7,5.08
				c0.38,0.41,0.8,0.66,1.28,0.76c0.48,0.1,0.86,0.02,1.13-0.23l1.9-1.75l5.16,5.57l-1.89,1.75c-1.35,1.25-3.14,1.63-5.36,1.13
				c-2.22-0.49-4.24-1.72-6.05-3.68l-4.7-5.08c-1.84-1.99-2.93-4.12-3.27-6.4c-0.34-2.28,0.16-4.04,1.51-5.29l8.67-8.02
				c1.35-1.25,3.15-1.61,5.39-1.09C836.89,900.56,838.94,901.81,840.77,903.8z"/>
		</g>
		<g>
			<path class="st0" d="M864.07,925.12l5.71,4.08c2.17,1.55,3.66,3.41,4.45,5.58c0.79,2.17,0.66,4-0.39,5.47l-6.88,9.64
				c-1.05,1.48-2.73,2.19-5.04,2.14c-2.31-0.05-4.54-0.85-6.72-2.4l-5.71-4.08c-2.17-1.55-3.66-3.41-4.46-5.57
				c-0.8-2.16-0.67-3.98,0.38-5.46l6.88-9.64c1.05-1.48,2.74-2.2,5.05-2.15C859.65,922.77,861.9,923.57,864.07,925.12z
				 M866.72,933.49l-5.71-4.08c-0.45-0.32-0.92-0.49-1.4-0.5c-0.48-0.01-0.83,0.14-1.05,0.44l-6.88,9.64
				c-0.22,0.31-0.25,0.69-0.08,1.14c0.17,0.45,0.48,0.84,0.93,1.16l5.71,4.08c0.45,0.32,0.92,0.49,1.4,0.5
				c0.48,0.01,0.83-0.14,1.05-0.44l6.88-9.64c0.22-0.31,0.24-0.69,0.08-1.14C867.48,934.2,867.17,933.81,866.72,933.49z"/>
		</g>
		<g>
			<path class="st0" d="M900.79,952.09l-11.6-5.64c-0.5-0.24-0.99-0.32-1.47-0.24c-0.48,0.08-0.81,0.29-0.97,0.63l-2.35,4.83
				l11.09,3.11l-2.38,4.9l-11.09-3.11l-3.34,6.87l-6.92-3.36l8.07-16.6c0.8-1.65,2.34-2.65,4.6-2.99c2.27-0.34,4.62,0.08,7.05,1.26
				l11.6,5.64L900.79,952.09z"/>
		</g>
		<g>
			<path class="st0" d="M928.88,961.9l-12.22-4.12c-0.53-0.18-1.02-0.2-1.49-0.05c-0.47,0.14-0.76,0.39-0.88,0.75l-1.72,5.09
				l11.4,1.67l-1.74,5.16l-11.4-1.67l-2.44,7.24l-7.29-2.46l5.89-17.49c0.59-1.74,1.98-2.93,4.19-3.55c2.2-0.63,4.59-0.51,7.15,0.36
				l12.22,4.12L928.88,961.9z"/>
		</g>
		<g>
			<path class="st0" d="M957.76,968.78l-12.47-2.87c-0.57-0.13-1.09-0.11-1.54,0.06c-0.45,0.17-0.72,0.46-0.81,0.85l-1.21,5.24
				l11.51,0.54l-1.21,5.27l-11.5-0.58l-0.25,1.07c-0.08,0.37,0.04,0.73,0.39,1.09c0.34,0.36,0.79,0.6,1.33,0.72l12.52,2.88
				l-1.18,5.13l-12.52-2.88c-2.63-0.61-4.74-1.76-6.3-3.45c-1.57-1.69-2.14-3.43-1.73-5.22l2.66-11.54
				c0.41-1.77,1.68-3.07,3.81-3.91c2.13-0.84,4.53-0.95,7.2-0.34l12.47,2.87L957.76,968.78z"/>
		</g>
		<g>
			<path class="st0" d="M987.12,973.33l-12.66-1.84c-0.58-0.08-1.09-0.02-1.52,0.19c-0.44,0.21-0.68,0.52-0.74,0.91l-0.77,5.32
				l11.51-0.4l-0.78,5.35l-11.51,0.37l-0.16,1.08c-0.05,0.37,0.11,0.72,0.48,1.05c0.37,0.33,0.83,0.53,1.38,0.61l12.71,1.84
				l-0.76,5.21l-12.71-1.84c-2.67-0.39-4.86-1.36-6.56-2.92c-1.7-1.56-2.42-3.25-2.16-5.07l1.7-11.72c0.26-1.8,1.42-3.2,3.47-4.21
				c2.06-1.01,4.44-1.32,7.15-0.93l12.66,1.84L987.12,973.33z"/>
		</g>
		<g>
			<path class="st0" d="M1006.81,969.72l12.01-0.27c2.7-0.06,5.02,0.53,6.96,1.79c1.94,1.25,2.92,2.8,2.97,4.64l0.06,2.76
				c0.01,0.42-0.02,0.76-0.08,0.99c1.64,0.51,2.98,1.28,4.01,2.31c1.03,1.04,1.56,2.2,1.59,3.5l0.05,2.12
				c0.04,1.84-0.88,3.43-2.78,4.77c-1.89,1.34-4.18,2.04-6.84,2.1l-17.36,0.39L1006.81,969.72z M1014.68,974.77l0.14,5.94l4.71-0.85
				c0.41-0.08,0.78-0.24,1.11-0.47c0.32-0.23,0.49-0.41,0.48-0.52l-0.06-2.83c-0.01-0.38-0.22-0.7-0.65-0.98
				c-0.42-0.27-0.91-0.4-1.47-0.39L1014.68,974.77z M1014.93,986.12l0.08,3.46l9.62-0.22c0.55-0.01,1.03-0.16,1.42-0.46
				c0.39-0.29,0.58-0.63,0.58-1l-0.05-2.3c-0.01-0.33-0.18-0.63-0.51-0.89c-0.34-0.26-0.75-0.41-1.23-0.45L1014.93,986.12z"/>
		</g>
		<g>
			<path class="st0" d="M1062.44,969.39l-12.58,2.33c-0.58,0.11-1.04,0.33-1.38,0.67c-0.34,0.34-0.48,0.71-0.4,1.1l0.98,5.28
				l10.77-4.08l0.99,5.32l-10.78,4.05l0.2,1.08c0.07,0.37,0.33,0.65,0.79,0.84c0.46,0.19,0.96,0.24,1.51,0.13l12.63-2.34l0.96,5.18
				l-12.63,2.34c-2.66,0.49-5.04,0.28-7.15-0.65c-2.11-0.93-3.33-2.29-3.67-4.1l-2.16-11.65c-0.33-1.78,0.31-3.49,1.93-5.11
				c1.62-1.62,3.78-2.68,6.47-3.18l12.58-2.33L1062.44,969.39z"/>
		</g>
		<g>
			<path class="st0" d="M1076.61,959.15l6.48-2.56c2.51-0.99,4.9-1.24,7.15-0.73c2.25,0.5,3.71,1.61,4.39,3.32l6.79,17.16
				l-7.21,2.85l-3.42-8.65l-9.5,5.96l2.67,6.74l-7.21,2.85l-6.79-17.16c-0.68-1.71-0.37-3.52,0.93-5.42
				C1072.19,961.59,1074.09,960.14,1076.61,959.15z M1085.03,961.48l-6.48,2.56c-0.52,0.2-0.91,0.51-1.18,0.9
				c-0.27,0.4-0.34,0.77-0.2,1.12l2.13,5.39l9.51-5.93l-1.39-3.52c-0.14-0.35-0.44-0.58-0.91-0.68
				C1086.03,961.23,1085.54,961.28,1085.03,961.48z"/>
		</g>
		<g>
			<path class="st0" d="M1097.47,950.1l14.1-9.31c2.2-1.45,4.45-2.16,6.77-2.12c2.31,0.04,3.97,0.82,4.97,2.33l10.17,15.4
				l-6.42,4.24l-10.17-15.4c-0.21-0.31-0.55-0.49-1.02-0.51c-0.47-0.03-0.94,0.11-1.41,0.42l-7.68,5.07l10.95,16.58l-6.42,4.24
				L1097.47,950.1z"/>
		</g>
	</g>
</g>
<g>
	<g>
		<path class="st0" d="M1250.65,1472.31c-8.62,21.37-27.74,39.35-52.45,49.35c-7.76,3.13-15.82,5.38-23.95,6.66
			c-5.37,0.85-10.8,1.28-16.15,1.28c-8.98,0-17.66-1.19-25.78-3.55l-8.13-2.36c7.03-7.6,13.58-15.72,19.57-24.31
			c5.07,1.45,10.52,2.17,16.2,2.17c3.56,0,7.18-0.29,10.78-0.86c5.51-0.87,10.98-2.4,16.28-4.53c16.27-6.58,29.24-18.58,34.7-32.11
			c3.66-9.08,3.73-18.09,0.18-26.04c-6.06-13.58-21.82-22.01-41.12-22.01h-0.12c2.11-9.11,3.7-18.44,4.77-27.95
			c11.13,0.34,21.86,2.55,31.24,6.46c15.92,6.62,27.66,17.58,33.95,31.68C1256.93,1440.33,1256.94,1456.71,1250.65,1472.31z"/>
		<path class="st0" d="M1145.75,1502.12c0.33,0.1,0.67,0.2,1.01,0.28c-5.99,8.59-12.54,16.71-19.57,24.31l-3.82-1.11l5.59-10.77
			c1.2-2.31,2.34-4.64,3.39-6.91l4-8.65L1145.75,1502.12z"/>
		<g>
			<path class="st1" d="M1189.99,1364.03c-0.01,3.62-0.11,7.21-0.28,10.79c-0.12,2.81-0.3,5.62-0.53,8.4
				c-0.21,2.63-0.46,5.25-0.75,7.85c-1.07,9.51-2.66,18.84-4.77,27.95c-6.11,26.59-16.5,51.37-30.32,73.45
				c-1.6,2.58-3.26,5.12-4.97,7.62c-0.53,0.77-1.06,1.54-1.61,2.31c-5.99,8.59-12.54,16.71-19.57,24.31
				c-0.45,0.5-0.91,0.99-1.37,1.48c-38.92,41.31-92.35,66.81-151.32,66.81c-58.98,0-112.42-25.5-151.33-66.83
				c-39.15-41.58-63.59-99.17-64.15-162.91C811.26,1428.82,888.2,1453,974,1453c53.54,0,103.64-9.49,146.43-32.04
				c5.9-3.1,11.65-6.45,17.26-10.06c3.84-2.47,7.62-5.07,11.32-7.79c3.93-2.88,7.78-5.91,11.54-9.09c1.46-1.23,2.91-2.48,4.35-3.76
				c4.78-4.23,9.42-8.72,13.89-13.46C1182.64,1372.73,1186.38,1368.47,1189.99,1364.03z"/>
		</g>
		<path class="st0" d="M1125.82,1538.19c-3.38,7.33-7.22,14.38-11.48,21.11c-1.25,2-2.55,3.96-3.88,5.89
			c-30.67,44.51-80.14,76.81-135.96,76.81c-66.44,0-123.9-44.35-151.33-103.83c38.91,46.73,92.35,68.78,151.33,68.78
			C1033.47,1606.95,1086.9,1584.9,1125.82,1538.19z"/>
		<path class="st0" d="M975,1202c-118.74,0-215,52.16-215,116.5c0,64.34,96.26,116.5,215,116.5s215-52.16,215-116.5
			C1190,1254.16,1093.74,1202,975,1202z M957,1340c-121.77,49.13-181,6-181,6s73.63,12.4,179-53c116-72,188-39,188-39
			C1031,1263,1014,1317,957,1340z"/>
	</g>
	<g>
		<g>
			<path class="st0" d="M815.77,1449.8l4.7,5.08c1.81,1.96,2.88,4.07,3.2,6.32c0.32,2.26-0.2,4.01-1.55,5.26l-1.32,1.22l-5.16-5.57
				l1.32-1.22c0.28-0.26,0.38-0.63,0.32-1.11c-0.06-0.48-0.28-0.93-0.66-1.34l-4.7-5.08c-0.4-0.43-0.84-0.71-1.32-0.83
				c-0.48-0.12-0.87-0.05-1.16,0.23l-8.67,8.02c-0.29,0.27-0.4,0.65-0.32,1.14c0.08,0.49,0.32,0.95,0.73,1.38l4.7,5.08
				c0.38,0.41,0.8,0.66,1.28,0.76c0.48,0.1,0.86,0.02,1.13-0.23l1.9-1.75l5.16,5.57l-1.89,1.75c-1.35,1.25-3.14,1.63-5.36,1.13
				s-4.24-1.72-6.05-3.68l-4.7-5.08c-1.84-1.98-2.93-4.12-3.27-6.4c-0.34-2.28,0.16-4.04,1.51-5.29l8.67-8.02
				c1.35-1.25,3.15-1.61,5.39-1.09C811.89,1446.56,813.94,1447.81,815.77,1449.8z"/>
		</g>
		<g>
			<path class="st0" d="M839.07,1471.12l5.71,4.08c2.17,1.55,3.66,3.41,4.45,5.58c0.79,2.17,0.66,4-0.39,5.47l-6.88,9.64
				c-1.05,1.48-2.73,2.19-5.04,2.14c-2.31-0.05-4.54-0.85-6.72-2.4l-5.71-4.08c-2.17-1.55-3.66-3.41-4.46-5.57
				c-0.8-2.16-0.67-3.98,0.38-5.46l6.88-9.64c1.05-1.48,2.74-2.2,5.05-2.15C834.65,1468.77,836.9,1469.57,839.07,1471.12z
				 M841.72,1479.49l-5.71-4.08c-0.45-0.32-0.92-0.49-1.4-0.5c-0.48-0.01-0.83,0.14-1.05,0.44l-6.88,9.64
				c-0.22,0.31-0.25,0.69-0.08,1.14c0.17,0.45,0.48,0.84,0.93,1.16l5.71,4.08c0.45,0.32,0.92,0.49,1.4,0.5
				c0.48,0.01,0.83-0.14,1.05-0.44l6.88-9.64c0.22-0.31,0.24-0.69,0.08-1.14C842.48,1480.2,842.17,1479.81,841.72,1479.49z"/>
		</g>
		<g>
			<path class="st0" d="M875.79,1498.09l-11.6-5.64c-0.5-0.24-0.99-0.32-1.47-0.24c-0.48,0.08-0.81,0.29-0.97,0.63l-2.35,4.83
				l11.09,3.11l-2.38,4.9l-11.09-3.11l-3.34,6.87l-6.92-3.36l8.07-16.6c0.8-1.65,2.34-2.65,4.6-2.99c2.27-0.34,4.62,0.08,7.05,1.26
				l11.6,5.64L875.79,1498.09z"/>
		</g>
		<g>
			<path class="st0" d="M903.88,1507.9l-12.22-4.12c-0.53-0.18-1.02-0.2-1.49-0.05c-0.47,0.14-0.76,0.39-0.88,0.75l-1.72,5.09
				l11.4,1.67l-1.74,5.16l-11.4-1.67l-2.44,7.24l-7.29-2.46l5.89-17.49c0.59-1.74,1.98-2.93,4.19-3.55c2.2-0.63,4.59-0.51,7.15,0.36
				l12.22,4.12L903.88,1507.9z"/>
		</g>
		<g>
			<path class="st0" d="M932.76,1514.78l-12.47-2.87c-0.57-0.13-1.09-0.11-1.54,0.06c-0.45,0.17-0.72,0.46-0.81,0.85l-1.21,5.24
				l11.51,0.54l-1.21,5.27l-11.5-0.58l-0.25,1.07c-0.08,0.37,0.04,0.73,0.39,1.09c0.34,0.36,0.79,0.6,1.33,0.72l12.52,2.88
				l-1.18,5.13l-12.52-2.88c-2.63-0.61-4.74-1.76-6.3-3.45c-1.57-1.69-2.14-3.43-1.73-5.22l2.66-11.54
				c0.41-1.77,1.68-3.07,3.81-3.91c2.13-0.84,4.53-0.95,7.2-0.34l12.47,2.87L932.76,1514.78z"/>
		</g>
		<g>
			<path class="st0" d="M962.12,1519.33l-12.66-1.84c-0.58-0.08-1.09-0.02-1.52,0.19c-0.44,0.21-0.68,0.51-0.74,0.91l-0.77,5.32
				l11.51-0.4l-0.78,5.35l-11.51,0.37l-0.16,1.08c-0.05,0.37,0.11,0.72,0.48,1.05c0.37,0.33,0.83,0.53,1.38,0.61l12.71,1.84
				l-0.76,5.21l-12.71-1.84c-2.67-0.39-4.86-1.36-6.56-2.92c-1.7-1.56-2.42-3.25-2.16-5.07l1.7-11.72c0.26-1.8,1.42-3.2,3.47-4.21
				c2.06-1.01,4.44-1.32,7.15-0.93l12.66,1.84L962.12,1519.33z"/>
		</g>
		<g>
			<path class="st0" d="M981.81,1515.72l12.01-0.27c2.7-0.06,5.02,0.53,6.96,1.79c1.94,1.25,2.92,2.8,2.97,4.64l0.06,2.76
				c0.01,0.42-0.02,0.76-0.08,0.99c1.64,0.51,2.98,1.28,4.01,2.31c1.03,1.04,1.56,2.2,1.59,3.5l0.05,2.12
				c0.04,1.84-0.88,3.43-2.78,4.77c-1.89,1.34-4.18,2.04-6.84,2.1l-17.36,0.39L981.81,1515.72z M989.68,1520.77l0.14,5.94l4.71-0.85
				c0.41-0.08,0.78-0.24,1.11-0.47c0.32-0.23,0.49-0.41,0.48-0.52l-0.06-2.83c-0.01-0.38-0.22-0.7-0.65-0.98
				c-0.42-0.27-0.91-0.4-1.47-0.39L989.68,1520.77z M989.93,1532.12l0.08,3.46l9.62-0.22c0.55-0.01,1.03-0.16,1.42-0.46
				c0.39-0.29,0.58-0.63,0.58-1l-0.05-2.3c-0.01-0.33-0.18-0.63-0.51-0.89c-0.34-0.26-0.75-0.41-1.23-0.45L989.93,1532.12z"/>
		</g>
		<g>
			<path class="st0" d="M1037.44,1515.39l-12.58,2.33c-0.58,0.11-1.04,0.33-1.38,0.67c-0.34,0.34-0.48,0.71-0.4,1.1l0.98,5.28
				l10.77-4.08l0.99,5.32l-10.78,4.05l0.2,1.08c0.07,0.37,0.33,0.65,0.79,0.84c0.46,0.19,0.96,0.24,1.51,0.13l12.63-2.34l0.96,5.18
				l-12.63,2.34c-2.66,0.49-5.04,0.28-7.15-0.65c-2.11-0.93-3.33-2.29-3.67-4.1l-2.16-11.65c-0.33-1.78,0.31-3.49,1.93-5.11
				c1.62-1.62,3.78-2.68,6.47-3.18l12.58-2.33L1037.44,1515.39z"/>
		</g>
		<g>
			<path class="st0" d="M1051.61,1505.15l6.48-2.56c2.51-0.99,4.9-1.24,7.15-0.73c2.25,0.5,3.71,1.61,4.39,3.32l6.79,17.16
				l-7.21,2.85l-3.42-8.65l-9.5,5.96l2.67,6.74l-7.21,2.85l-6.79-17.16c-0.68-1.71-0.37-3.52,0.93-5.42
				C1047.19,1507.59,1049.09,1506.14,1051.61,1505.15z M1060.03,1507.48l-6.48,2.56c-0.52,0.2-0.91,0.51-1.18,0.9
				c-0.27,0.4-0.34,0.77-0.2,1.12l2.13,5.39l9.51-5.93l-1.39-3.52c-0.14-0.35-0.44-0.58-0.91-0.68
				C1061.03,1507.23,1060.54,1507.28,1060.03,1507.48z"/>
		</g>
		<g>
			<path class="st0" d="M1072.47,1496.1l14.1-9.31c2.2-1.45,4.45-2.16,6.77-2.12c2.31,0.04,3.97,0.82,4.97,2.33l10.17,15.4
				l-6.42,4.24l-10.17-15.4c-0.21-0.31-0.55-0.49-1.02-0.51c-0.47-0.03-0.94,0.11-1.41,0.42l-7.68,5.07l10.95,16.58l-6.42,4.24
				L1072.47,1496.1z"/>
		</g>
	</g>
</g>
</svg>
