<?xml version="1.0" encoding="utf-8"?>
<!-- Generator: Adobe Illustrator 23.0.3, SVG Export Plug-In . SVG Version: 6.00 Build 0)  -->
<svg version="1.1" id="Layer_1" xmlns="http://www.w3.org/2000/svg" xmlns:xlink="http://www.w3.org/1999/xlink" x="0px" y="0px"
	 viewBox="0 0 2000 2000" style="enable-background:new 0 0 2000 2000;" xml:space="preserve">
<style type="text/css">
	.st0{display:none;fill:#B72525;}
	.st1{fill:#4D2305;}
	.st2{fill:#FFFFFF;}
	.st3{fill:#D98600;}
	.st4{display:none;}
	.st5{display:inline;}
</style>
<g>
	<rect class="st0" width="2000" height="2000"/>
	<g>
		<g>
			<path class="st1" d="M1597.2,1439.5c-32.5,0-63.8-4.3-93-12.8l-33.5-9.7l15.5-29.9c4.4-8.5,8.7-17.3,12.8-26l11.5-24.7l27.2,8.3
				c20.7,6.3,43.1,9.5,66.4,9.5c13.7,0,27.6-1.1,41.5-3.3c21.1-3.3,42.1-9.2,62.4-17.4c62.7-25.3,112.7-71.8,133.9-124.2
				c14.6-36.1,14.7-72,0.5-103.8c-24-53.8-85.7-87.2-161-87.2c-13.9,0-28.1,1.1-42.4,3.4c-11.5,1.8-23,4.4-34.3,7.7l-37.1,10.8
				l-2.4-35.8c-0.6-9.3-1.4-18.1-2.3-26.1l-2.7-24.2l25.3-7c14.4-4,29.1-7.2,43.6-9.4c19.2-3,38.8-4.6,58-4.6
				c44.2,0,87,8.1,123.9,23.5c56.8,23.6,98.7,62.6,121,112.7c11.5,25.7,17.1,53.1,16.9,81.6c-0.2,27.3-5.9,55-16.9,82.2
				c-14.9,37-39.7,72.6-71.5,102.9c-33.2,31.6-72.9,56.9-117.9,75c-28.3,11.3-57.5,19.4-86.8,24
				C1636.2,1437.9,1616.5,1439.5,1597.2,1439.5z"/>
			<path class="st2" d="M1687,945.8c42.3,0,83.2,7.6,119,22.5c53.7,22.3,93.2,59,114.1,106c52.3,117.1-29.6,262.6-182.5,324.4
				c-27.2,10.9-55.5,18.7-83.9,23.3c-18.9,3-37.8,4.5-56.4,4.5c-31,0-61.3-4.1-89.4-12.3l-18.3-5.3l8.2-15.9c4.6-8.9,9-17.8,13-26.5
				l6.7-14.5l16.4,5c22,6.7,45.7,10,70.2,10c14.3,0,28.9-1.2,43.5-3.5c22.1-3.5,44.1-9.6,65.2-18.2
				c117.2-47.4,180.6-157.5,141.4-245.4c-26.5-59.4-93.2-94.8-172.8-94.8c-14.4,0-29.3,1.2-44.4,3.6c-12,1.9-24.1,4.6-35.9,8
				l-21.6,6.3l-1.3-19.7c-0.6-9.1-1.4-18.1-2.4-26.7l-1.5-13.2l14.6-4c13.9-3.9,28-6.9,42.1-9.1
				C1649.6,947.3,1668.4,945.8,1687,945.8 M1687,919.9v26V919.9c-20,0-40.2,1.6-60.1,4.7c-15,2.3-30.1,5.6-45,9.8l-14.6,4l-21.3,5.9
				l2.5,22l1.5,13.2c0.9,7.8,1.6,16.4,2.3,25.6l1.3,19.7l2.2,32.2l31-9l21.6-6.3c10.8-3.1,21.8-5.6,32.7-7.3
				c13.6-2.2,27.2-3.2,40.4-3.2c70.1,0,127.2,30.5,149.1,79.5c12.7,28.5,12.5,60.9-0.7,93.7c-19.9,49.3-67.2,93-126.7,117.1
				c-19.4,7.8-39.4,13.4-59.6,16.6c-13.2,2.1-26.5,3.1-39.5,3.1c-22.1,0-43.2-3-62.7-8.9l-16.3-5l-21.6-6.6l-9.5,20.5l-6.7,14.5
				c-4,8.6-8.2,17.1-12.5,25.5l-8.2,15.9l-14.6,28.1l30.4,8.8l18.3,5.3c30.4,8.8,62.9,13.3,96.6,13.3c20,0,40.4-1.6,60.5-4.8
				c30.3-4.8,60.4-13.2,89.5-24.8l0,0l0,0c46.5-18.8,87.5-44.9,122-77.7c33.2-31.6,59-68.7,74.6-107.5c11.6-28.8,17.6-58,17.9-87
				c0.3-30.3-5.8-59.6-18-87c-23.7-53.2-67.9-94.5-127.9-119.4C1777.4,928.3,1732.8,919.9,1687,919.9L1687,919.9z"/>
		</g>
		<g>
			<g>
				<path class="st3" d="M905,1695c-109.1,0-214.9-22.8-314.7-67.8c-96.3-43.4-182.9-105.6-257.4-184.8
					c-74.9-79.6-134-172.4-175.6-276c-43-107-65.3-220.9-66.4-338.4l-0.4-42l26.7,32.4c174.5,212.4,439,320,786,320
					c208.3,0,388.7-39.4,536.2-117.1c21.5-11.3,42.6-23.6,62.9-36.7c35-22.5,68.4-47.8,99.1-75.2c17.5-15.5,34.5-32,50.6-49
					c14.1-14.9,27.8-30.5,40.8-46.5l26.5-32.6l-0.1,42c0,13.2-0.4,26.5-1.1,40.7c-0.4,10.3-1.1,20.9-2,31.7
					c-6,74.5-20.8,147.8-44,217.9c-22.7,68.3-53.3,133.6-91.1,194c-5.9,9.5-12.2,19.2-18.8,28.8c-25.5,37.4-54.1,73.1-85.1,106
					c-74.6,79.2-161.2,141.3-257.5,184.7C1119.9,1672.2,1014.1,1695,905,1695z"/>
				<path class="st2" d="M1704.3,823.4c0,13.4-0.4,26.7-1,40c-0.4,10.4-1.1,20.8-2,31.2c-11.9,149.2-59.3,287.6-132.9,405.2
					c-5.9,9.6-12.1,19-18.4,28.3c-25.3,37.1-53.3,72-83.6,104.2c-144.4,153.2-342.5,247.8-561.3,247.8
					c-218.8,0-417-94.6-561.3-247.9C198.5,1278,107.8,1064.4,105.8,828c193.8,235.8,479.2,325.4,797.4,325.4
					c198.6,0,384.4-35.2,543.1-118.8c21.9-11.5,43.2-23.9,64-37.3c35.3-22.7,69-48.1,100.9-76.6c17.7-15.7,34.9-32.3,51.5-49.9
					C1677.1,855.7,1691,839.9,1704.3,823.4 M1734.2,739.6l-52.9,65.1c-12.8,15.7-26.3,31.1-40.1,45.7
					c-15.8,16.8-32.5,32.9-49.6,48.1l0,0l0,0c-30.1,26.8-62.9,51.6-97.3,73.8c-19.9,12.8-40.7,24.9-61.8,36
					c-145.4,76.6-323.4,115.4-529.3,115.4c-342.3,0-602.9-105.9-774.5-314.6l-53.3-64.9l0.7,84c0.5,59.9,6.7,119.8,18.2,178
					c11.3,56.7,27.8,112.5,49.2,165.8c21,52.3,46.9,102.8,77,150c29.8,46.8,64,90.7,101.6,130.6c37.4,39.7,78.5,75.8,122.1,107.2
					c44.1,31.7,91.2,59,140,81c49.8,22.4,101.8,39.7,154.7,51.2c54.3,11.8,110.2,17.9,166,17.9c55.9,0,111.7-6,166-17.9
					c52.9-11.5,105-28.8,154.7-51.2c48.8-22,95.9-49.2,140-81c43.6-31.4,84.7-67.4,122.1-107.1c31.5-33.5,60.6-69.8,86.6-107.9
					c6.7-9.8,13.1-19.6,19.1-29.3c38.4-61.4,69.6-127.7,92.6-197.1c23.6-71.2,38.7-145.7,44.7-221.3l0,0c0.9-10.9,1.6-21.8,2-32.3
					c0.7-14.4,1-27.9,1.1-41.3L1734.2,739.6L1734.2,739.6z"/>
			</g>
		</g>
		<g>
			<path class="st1" d="M905,1809.9c-120.4,0-237.6-32-338.7-92.6c-98.5-59-177.8-142.3-229.2-240.9l-24.8-47.6l36.8,39.1
				c149.1,158.3,346.5,245.6,555.9,245.6c209.3,0,406.7-87.2,555.9-245.5l36.8-39l-24.8,47.6c-12.6,24.2-27.1,47.8-43.1,70.1
				c-4.3,6.1-9.1,12.5-14.6,19.6c-57.6,73.9-133.6,135.2-219.8,177.3c-44,21.4-90.6,38-138.6,49.1
				C1007.5,1804.1,956.4,1809.9,905,1809.9z"/>
			<path class="st2" d="M343.7,1473C488,1626.3,686.3,1720.9,905,1720.9c218.7,0,416.9-94.6,561.3-247.8
				c-12.5,24-26.8,47.2-42.6,69.3c-4.6,6.6-9.5,13-14.4,19.3c-113.8,146-297.3,240.8-504.3,240.8
				C658.6,1802.5,445.5,1668.2,343.7,1473 M280.9,1384.7l49.6,95.2c52,99.8,132.2,184.1,231.9,243.8
				c102.3,61.3,220.8,93.7,342.5,93.7c51.9,0,103.6-5.9,153.5-17.5c48.5-11.3,95.7-28,140.1-49.7c43.7-21.3,84.8-47.5,122.3-77.7
				c37.3-30.1,71-64.3,100.1-101.7c5.6-7.2,10.4-13.7,14.8-19.8c16.2-22.6,30.9-46.5,43.7-71l49.6-95.1l-73.6,78.1
				c-147.7,156.8-343.2,243.2-550.5,243.2c-207.3,0-402.9-86.4-550.5-243.2L280.9,1384.7L280.9,1384.7z"/>
		</g>
		<path class="st2" d="M906.9,197.5c-465.4,0-842.7,207.9-842.7,464.5s377.3,464.5,842.7,464.5s842.7-207.9,842.7-464.5
			S1372.3,197.5,906.9,197.5z"/>
		<path class="st1" d="M906.9,229.8c-440.4,0-797.5,193.5-797.5,432.1s357.1,432.1,797.5,432.1s797.5-193.5,797.5-432.1
			S1347.3,229.8,906.9,229.8z M840.1,741.7c-451.7,182.2-671.4,22.3-671.4,22.3s273.1,46,664-196.6
			C1263,300.3,1530,422.7,1530,422.7C1114.6,456.1,1051.5,656.4,840.1,741.7z"/>
	</g>
	<g class="st4">
		<g class="st5">
			<path class="st1" d="M844.4,1136.8l4.7,5.1c1.8,2,2.9,4.1,3.2,6.3s-0.2,4-1.5,5.3l-1.3,1.2l-5.2-5.6l1.3-1.2
				c0.3-0.3,0.4-0.6,0.3-1.1s-0.3-0.9-0.7-1.3l-4.7-5.1c-0.4-0.4-0.8-0.7-1.3-0.8c-0.5-0.1-0.9-0.1-1.2,0.2l-8.7,8
				c-0.3,0.3-0.4,0.6-0.3,1.1s0.3,1,0.7,1.4l4.7,5.1c0.4,0.4,0.8,0.7,1.3,0.8c0.5,0.1,0.9,0,1.1-0.2l1.9-1.8l5.2,5.6l-1.9,1.8
				c-1.3,1.3-3.1,1.6-5.4,1.1c-2.2-0.5-4.2-1.7-6-3.7l-4.7-5.1c-1.8-2-2.9-4.1-3.3-6.4s0.2-4,1.5-5.3l8.7-8c1.3-1.3,3.2-1.6,5.4-1.1
				C840.6,1133.6,842.6,1134.8,844.4,1136.8z"/>
		</g>
		<g class="st5">
			<path class="st1" d="M867.7,1158.1l5.7,4.1c2.2,1.6,3.7,3.4,4.5,5.6c0.8,2.2,0.7,4-0.4,5.5l-6.9,9.6c-1,1.5-2.7,2.2-5,2.1
				s-4.5-0.8-6.7-2.4l-5.7-4.1c-2.2-1.6-3.7-3.4-4.5-5.6c-0.8-2.2-0.7-4,0.4-5.5l6.9-9.6c1-1.5,2.7-2.2,5-2.1
				C863.3,1155.8,865.6,1156.6,867.7,1158.1z M870.4,1166.5l-5.7-4.1c-0.5-0.3-0.9-0.5-1.4-0.5c-0.5,0-0.8,0.1-1,0.4l-6.9,9.6
				c-0.2,0.3-0.3,0.7-0.1,1.1s0.5,0.8,0.9,1.2l5.7,4.1c0.5,0.3,0.9,0.5,1.4,0.5c0.5,0,0.8-0.1,1-0.4l6.9-9.6
				c0.2-0.3,0.2-0.7,0.1-1.1C871.2,1167.2,870.8,1166.8,870.4,1166.5z"/>
		</g>
		<g class="st5">
			<path class="st1" d="M904.5,1185.1l-11.6-5.6c-0.5-0.2-1-0.3-1.5-0.2c-0.5,0.1-0.8,0.3-1,0.6l-2.3,4.8l11.1,3.1l-2.4,4.9
				l-11.1-3.1l-3.3,6.9l-6.9-3.4l8.1-16.6c0.8-1.7,2.3-2.7,4.6-3c2.3-0.3,4.6,0.1,7,1.3l11.6,5.6L904.5,1185.1z"/>
		</g>
		<g class="st5">
			<path class="st1" d="M932.6,1194.9l-12.2-4.1c-0.5-0.2-1-0.2-1.5-0.1c-0.5,0.1-0.8,0.4-0.9,0.8l-1.7,5.1l11.4,1.7l-1.7,5.2
				l-11.4-1.7l-2.4,7.2l-7.3-2.5l5.9-17.5c0.6-1.7,2-2.9,4.2-3.6c2.2-0.6,4.6-0.5,7.2,0.4l12.2,4.1L932.6,1194.9z"/>
		</g>
		<g class="st5">
			<path class="st1" d="M961.4,1201.8l-12.5-2.9c-0.6-0.1-1.1-0.1-1.5,0.1c-0.5,0.2-0.7,0.5-0.8,0.9l-1.2,5.2l11.5,0.5l-1.2,5.3
				l-11.5-0.6l-0.3,1.1c-0.1,0.4,0,0.7,0.4,1.1c0.3,0.4,0.8,0.6,1.3,0.7l12.5,2.9l-1.2,5.1l-12.5-2.9c-2.6-0.6-4.7-1.8-6.3-3.5
				c-1.6-1.7-2.1-3.4-1.7-5.2l2.7-11.5c0.4-1.8,1.7-3.1,3.8-3.9s4.5-1,7.2-0.3l12.5,2.9L961.4,1201.8z"/>
		</g>
		<g class="st5">
			<path class="st1" d="M990.8,1206.3l-12.7-1.8c-0.6-0.1-1.1,0-1.5,0.2c-0.4,0.2-0.7,0.5-0.7,0.9l-0.8,5.3l11.5-0.4l-0.8,5.3
				l-11.5,0.4l-0.2,1.1c0,0.4,0.1,0.7,0.5,1c0.4,0.3,0.8,0.5,1.4,0.6l12.7,1.8l-0.8,5.2l-12.7-1.8c-2.7-0.4-4.9-1.4-6.6-2.9
				c-1.7-1.6-2.4-3.3-2.2-5.1l1.7-11.7c0.3-1.8,1.4-3.2,3.5-4.2c2.1-1,4.4-1.3,7.2-0.9l12.7,1.8L990.8,1206.3z"/>
		</g>
		<g class="st5">
			<path class="st1" d="M1010.5,1202.7l12-0.3c2.7-0.1,5,0.5,7,1.8c1.9,1.3,2.9,2.8,3,4.6l0.1,2.8c0,0.4,0,0.8-0.1,1
				c1.6,0.5,3,1.3,4,2.3c1,1,1.6,2.2,1.6,3.5l0.1,2.1c0,1.8-0.9,3.4-2.8,4.8c-1.9,1.3-4.2,2-6.8,2.1l-17.4,0.4L1010.5,1202.7z
				 M1018.4,1207.8l0.1,5.9l4.7-0.8c0.4-0.1,0.8-0.2,1.1-0.5c0.3-0.2,0.5-0.4,0.5-0.5l-0.1-2.8c0-0.4-0.2-0.7-0.7-1
				c-0.4-0.3-0.9-0.4-1.5-0.4L1018.4,1207.8z M1018.6,1219.1l0.1,3.5l9.6-0.2c0.6,0,1-0.2,1.4-0.5c0.4-0.3,0.6-0.6,0.6-1l-0.1-2.3
				c0-0.3-0.2-0.6-0.5-0.9c-0.3-0.3-0.8-0.4-1.2-0.4L1018.6,1219.1z"/>
		</g>
		<g class="st5">
			<path class="st1" d="M1066.1,1202.4l-12.6,2.3c-0.6,0.1-1,0.3-1.4,0.7s-0.5,0.7-0.4,1.1l1,5.3l10.8-4.1l1,5.3l-10.8,4.1l0.2,1.1
				c0.1,0.4,0.3,0.7,0.8,0.8c0.5,0.2,1,0.2,1.5,0.1l12.6-2.3l1,5.2l-12.6,2.3c-2.7,0.5-5,0.3-7.2-0.7s-3.3-2.3-3.7-4.1l-2.2-11.7
				c-0.3-1.8,0.3-3.5,1.9-5.1s3.8-2.7,6.5-3.2l12.6-2.3L1066.1,1202.4z"/>
		</g>
		<g class="st5">
			<path class="st1" d="M1080.3,1192.2l6.5-2.6c2.5-1,4.9-1.2,7.2-0.7c2.3,0.5,3.7,1.6,4.4,3.3l6.8,17.2l-7.2,2.8l-3.4-8.6l-9.5,6
				l2.7,6.7l-7.2,2.8l-6.8-17.2c-0.7-1.7-0.4-3.5,0.9-5.4C1075.9,1194.6,1077.8,1193.1,1080.3,1192.2z M1088.7,1194.5l-6.5,2.6
				c-0.5,0.2-0.9,0.5-1.2,0.9c-0.3,0.4-0.3,0.8-0.2,1.1l2.1,5.4l9.5-5.9l-1.4-3.5c-0.1-0.3-0.4-0.6-0.9-0.7
				C1089.7,1194.2,1089.2,1194.3,1088.7,1194.5z"/>
		</g>
		<g class="st5">
			<path class="st1" d="M1101.1,1183.1l14.1-9.3c2.2-1.5,4.4-2.2,6.8-2.1c2.3,0,4,0.8,5,2.3l10.2,15.4l-6.4,4.2l-10.2-15.4
				c-0.2-0.3-0.6-0.5-1-0.5c-0.5,0-0.9,0.1-1.4,0.4l-7.7,5.1l10.9,16.6l-6.4,4.2L1101.1,1183.1z"/>
		</g>
	</g>
</g>
<g>
	<g>
		<path class="st1" d="M1810,2347.7c-8.6,21.4-27.7,39.4-52.4,49.4c-7.8,3.1-15.8,5.4-23.9,6.7c-5.4,0.9-10.8,1.3-16.2,1.3
			c-9,0-17.7-1.2-25.8-3.6l-8.1-2.4c7-7.6,13.6-15.7,19.6-24.3c5.1,1.4,10.5,2.2,16.2,2.2c3.6,0,7.2-0.3,10.8-0.9
			c5.5-0.9,11-2.4,16.3-4.5c16.3-6.6,29.2-18.6,34.7-32.1c3.7-9.1,3.7-18.1,0.2-26c-6.1-13.6-21.8-22-41.1-22h-0.1
			c2.1-9.1,3.7-18.4,4.8-27.9c11.1,0.3,21.9,2.6,31.2,6.5c15.9,6.6,27.7,17.6,33.9,31.7C1816.3,2315.7,1816.3,2332.1,1810,2347.7z"
			/>
		<path class="st1" d="M1705.1,2377.5c0.3,0.1,0.7,0.2,1,0.3c-6,8.6-12.5,16.7-19.6,24.3l-3.8-1.1l5.6-10.8c1.2-2.3,2.3-4.6,3.4-6.9
			l4-8.7L1705.1,2377.5z"/>
		<g>
			<path class="st3" d="M1749.3,2239.4c0,3.6-0.1,7.2-0.3,10.8c-0.1,2.8-0.3,5.6-0.5,8.4c-0.2,2.6-0.5,5.3-0.8,7.8
				c-1.1,9.5-2.7,18.8-4.8,27.9c-6.1,26.6-16.5,51.4-30.3,73.4c-1.6,2.6-3.3,5.1-5,7.6c-0.5,0.8-1.1,1.5-1.6,2.3
				c-6,8.6-12.5,16.7-19.6,24.3c-0.4,0.5-0.9,1-1.4,1.5c-38.9,41.3-92.3,66.8-151.3,66.8c-59,0-112.4-25.5-151.3-66.8
				c-39.2-41.6-63.6-99.2-64.2-162.9c52.2,63.6,129.2,87.7,215,87.7c53.5,0,103.6-9.5,146.4-32c5.9-3.1,11.7-6.4,17.3-10.1
				c3.8-2.5,7.6-5.1,11.3-7.8c3.9-2.9,7.8-5.9,11.5-9.1c1.5-1.2,2.9-2.5,4.3-3.8c4.8-4.2,9.4-8.7,13.9-13.5
				C1742,2248.1,1745.7,2243.8,1749.3,2239.4z"/>
		</g>
		<path class="st1" d="M1685.1,2413.6c-3.4,7.3-7.2,14.4-11.5,21.1c-1.3,2-2.6,4-3.9,5.9c-30.7,44.5-80.1,76.8-136,76.8
			c-66.4,0-123.9-44.3-151.3-103.8c38.9,46.7,92.3,68.8,151.3,68.8C1592.8,2482.3,1646.2,2460.3,1685.1,2413.6z"/>
		<path class="st1" d="M1534.3,2077.4c-118.7,0-215,52.2-215,116.5c0,64.3,96.3,116.5,215,116.5s215-52.2,215-116.5
			C1749.3,2129.5,1653.1,2077.4,1534.3,2077.4z M1516.3,2215.4c-121.8,49.1-181,6-181,6s73.6,12.4,179-53c116-72,188-39,188-39
			C1590.3,2138.4,1573.3,2192.4,1516.3,2215.4z"/>
	</g>
	<g>
		<g>
			<path class="st1" d="M1375.1,2325.2l4.7,5.1c1.8,2,2.9,4.1,3.2,6.3c0.3,2.3-0.2,4-1.5,5.3l-1.3,1.2l-5.2-5.6l1.3-1.2
				c0.3-0.3,0.4-0.6,0.3-1.1c-0.1-0.5-0.3-0.9-0.7-1.3l-4.7-5.1c-0.4-0.4-0.8-0.7-1.3-0.8c-0.5-0.1-0.9-0.1-1.2,0.2l-8.7,8
				c-0.3,0.3-0.4,0.6-0.3,1.1c0.1,0.5,0.3,0.9,0.7,1.4l4.7,5.1c0.4,0.4,0.8,0.7,1.3,0.8c0.5,0.1,0.9,0,1.1-0.2l1.9-1.8l5.2,5.6
				l-1.9,1.8c-1.3,1.3-3.1,1.6-5.4,1.1s-4.2-1.7-6.1-3.7l-4.7-5.1c-1.8-2-2.9-4.1-3.3-6.4c-0.3-2.3,0.2-4,1.5-5.3l8.7-8
				c1.3-1.3,3.2-1.6,5.4-1.1C1371.2,2321.9,1373.3,2323.2,1375.1,2325.2z"/>
		</g>
		<g>
			<path class="st1" d="M1398.4,2346.5l5.7,4.1c2.2,1.6,3.7,3.4,4.5,5.6c0.8,2.2,0.7,4-0.4,5.5l-6.9,9.6c-1.1,1.5-2.7,2.2-5,2.1
				c-2.3-0.1-4.5-0.9-6.7-2.4l-5.7-4.1c-2.2-1.6-3.7-3.4-4.5-5.6c-0.8-2.2-0.7-4,0.4-5.5l6.9-9.6c1.1-1.5,2.7-2.2,5.1-2.2
				C1394,2344.1,1396.2,2344.9,1398.4,2346.5z M1401,2354.9l-5.7-4.1c-0.5-0.3-0.9-0.5-1.4-0.5s-0.8,0.1-1.1,0.4l-6.9,9.6
				c-0.2,0.3-0.3,0.7-0.1,1.1c0.2,0.4,0.5,0.8,0.9,1.2l5.7,4.1c0.4,0.3,0.9,0.5,1.4,0.5c0.5,0,0.8-0.1,1-0.4l6.9-9.6
				c0.2-0.3,0.2-0.7,0.1-1.1C1401.8,2355.6,1401.5,2355.2,1401,2354.9z"/>
		</g>
		<g>
			<path class="st1" d="M1435.1,2373.5l-11.6-5.6c-0.5-0.2-1-0.3-1.5-0.2c-0.5,0.1-0.8,0.3-1,0.6l-2.3,4.8l11.1,3.1l-2.4,4.9
				l-11.1-3.1l-3.3,6.9l-6.9-3.4l8.1-16.6c0.8-1.6,2.3-2.6,4.6-3c2.3-0.3,4.6,0.1,7.1,1.3l11.6,5.6L1435.1,2373.5z"/>
		</g>
		<g>
			<path class="st1" d="M1463.2,2383.3l-12.2-4.1c-0.5-0.2-1-0.2-1.5-0.1c-0.5,0.1-0.8,0.4-0.9,0.8l-1.7,5.1l11.4,1.7l-1.7,5.2
				l-11.4-1.7l-2.4,7.2l-7.3-2.5l5.9-17.5c0.6-1.7,2-2.9,4.2-3.6c2.2-0.6,4.6-0.5,7.2,0.4l12.2,4.1L1463.2,2383.3z"/>
		</g>
		<g>
			<path class="st1" d="M1492.1,2390.1l-12.5-2.9c-0.6-0.1-1.1-0.1-1.5,0.1c-0.5,0.2-0.7,0.5-0.8,0.8l-1.2,5.2l11.5,0.5l-1.2,5.3
				l-11.5-0.6l-0.3,1.1c-0.1,0.4,0,0.7,0.4,1.1c0.3,0.4,0.8,0.6,1.3,0.7l12.5,2.9l-1.2,5.1l-12.5-2.9c-2.6-0.6-4.7-1.8-6.3-3.4
				c-1.6-1.7-2.1-3.4-1.7-5.2l2.7-11.5c0.4-1.8,1.7-3.1,3.8-3.9s4.5-0.9,7.2-0.3l12.5,2.9L1492.1,2390.1z"/>
		</g>
		<g>
			<path class="st1" d="M1521.4,2394.7l-12.7-1.8c-0.6-0.1-1.1,0-1.5,0.2c-0.4,0.2-0.7,0.5-0.7,0.9l-0.8,5.3l11.5-0.4l-0.8,5.3
				l-11.5,0.4l-0.2,1.1c0,0.4,0.1,0.7,0.5,1.1s0.8,0.5,1.4,0.6l12.7,1.8l-0.8,5.2l-12.7-1.8c-2.7-0.4-4.9-1.4-6.6-2.9
				c-1.7-1.6-2.4-3.3-2.2-5.1l1.7-11.7c0.3-1.8,1.4-3.2,3.5-4.2c2.1-1,4.4-1.3,7.2-0.9l12.7,1.8L1521.4,2394.7z"/>
		</g>
		<g>
			<path class="st1" d="M1541.1,2391.1l12-0.3c2.7-0.1,5,0.5,7,1.8c1.9,1.3,2.9,2.8,3,4.6l0.1,2.8c0,0.4,0,0.8-0.1,1
				c1.6,0.5,3,1.3,4,2.3c1,1,1.6,2.2,1.6,3.5l0,2.1c0,1.8-0.9,3.4-2.8,4.8c-1.9,1.3-4.2,2-6.8,2.1l-17.4,0.4L1541.1,2391.1z
				 M1549,2396.1l0.1,5.9l4.7-0.8c0.4-0.1,0.8-0.2,1.1-0.5c0.3-0.2,0.5-0.4,0.5-0.5l-0.1-2.8c0-0.4-0.2-0.7-0.7-1
				c-0.4-0.3-0.9-0.4-1.5-0.4L1549,2396.1z M1549.3,2407.5l0.1,3.5l9.6-0.2c0.6,0,1-0.2,1.4-0.5c0.4-0.3,0.6-0.6,0.6-1l0-2.3
				c0-0.3-0.2-0.6-0.5-0.9c-0.3-0.3-0.8-0.4-1.2-0.4L1549.3,2407.5z"/>
		</g>
		<g>
			<path class="st1" d="M1596.8,2390.8l-12.6,2.3c-0.6,0.1-1,0.3-1.4,0.7c-0.3,0.3-0.5,0.7-0.4,1.1l1,5.3l10.8-4.1l1,5.3l-10.8,4.1
				l0.2,1.1c0.1,0.4,0.3,0.6,0.8,0.8c0.5,0.2,1,0.2,1.5,0.1l12.6-2.3l1,5.2l-12.6,2.3c-2.7,0.5-5,0.3-7.2-0.6
				c-2.1-0.9-3.3-2.3-3.7-4.1l-2.2-11.6c-0.3-1.8,0.3-3.5,1.9-5.1c1.6-1.6,3.8-2.7,6.5-3.2l12.6-2.3L1596.8,2390.8z"/>
		</g>
		<g>
			<path class="st1" d="M1610.9,2380.5l6.5-2.6c2.5-1,4.9-1.2,7.2-0.7c2.3,0.5,3.7,1.6,4.4,3.3l6.8,17.2l-7.2,2.8l-3.4-8.6l-9.5,6
				l2.7,6.7l-7.2,2.8l-6.8-17.2c-0.7-1.7-0.4-3.5,0.9-5.4C1606.5,2383,1608.4,2381.5,1610.9,2380.5z M1619.4,2382.8l-6.5,2.6
				c-0.5,0.2-0.9,0.5-1.2,0.9c-0.3,0.4-0.3,0.8-0.2,1.1l2.1,5.4l9.5-5.9l-1.4-3.5c-0.1-0.3-0.4-0.6-0.9-0.7
				C1620.4,2382.6,1619.9,2382.6,1619.4,2382.8z"/>
		</g>
		<g>
			<path class="st1" d="M1631.8,2371.5l14.1-9.3c2.2-1.4,4.4-2.2,6.8-2.1c2.3,0,4,0.8,5,2.3l10.2,15.4l-6.4,4.2l-10.2-15.4
				c-0.2-0.3-0.6-0.5-1-0.5c-0.5,0-0.9,0.1-1.4,0.4l-7.7,5.1l10.9,16.6l-6.4,4.2L1631.8,2371.5z"/>
		</g>
	</g>
</g>
</svg>
